# xmcd
#
# Track frame offsets:
#	150
#	5627
#	13091
#	24904
#	36957
#	51340
#	63749
#	66653
#	72214
#	83316
#	96381
#	106452
#	110333
#	126054
#	139434
#	153577
#	170718
#	189935
#	204589
#	218327
#	235778
#	252153
#	268139
#	287502
#	294349
#	297928
#	311956
#	331615
#	346567
#	348622
#
# Disc length: 4737 seconds
#
# Revision: 0
# Processed by: cddbd v1.5.2PL0 Copyright (c) Steve Scherf et al.
# Submitted via: dBpowerAMP V4.0
#
DISCID=c5127f1e
DTITLE=TUTOR - ENCONCEPT
DYEAR=1900
DGENRE=
TTITLE0=Miss U So Much-P'Cherry
TTITLE1=What Will I Be?-P'Cherry
TTITLE2=Sorry For Loving U-P'Note
TTITLE3=Species Of Love-P'Note
TTITLE4=ให้ ได้รับ-P'Tong
TTITLE5=เพื่อน-P'Rose
TTITLE6=Let's Go Forward-P'Grez
TTITLE7=เบื่อหลาย-P'Cherry
TTITLE8=Secret Admirer-P'Nan
TTITLE9=ลด-P'Tee
TTITLE10=Perfect-P'Nan
TTITLE11=DoraDemon-P'Grez
TTITLE12=หนุ่มสะพานควาย-พี่เอนก
TTITLE13=ชม ด่า-พี่มอส
TTITLE14=วิเศษ-พี่ก้อย
TTITLE15=ความขัดแย้ง-พี่โรส
TTITLE16=กำลังใจ-พี่ก้อย
TTITLE17=หนุ่มเซเว่น-พี่เข้ม
TTITLE18=Don't Give Up-P'Kung
TTITLE19=อย่าเพิกเฉย-พี่ก้อ
TTITLE20=แค่นั้นก็พอ(สังเคราะห์เทียม)-พี่แขก
TTITLE21=ฉับพลันทันที-พี่อ้อย
TTITLE22=กระตุ้น-พี่เก่ง
TTITLE23=รบกวนมารักกัน-พี่ก้อ
TTITLE24=Honestly-P'Nan
TTITLE25=แมมมด-พี่ปิ่ม
TTITLE26=รักมากมาย-พี่ต้น
TTITLE27=เกินไป-พี่รุ่ง
TTITLE28=Weed...บึ้ม-Tutor
TTITLE29=Dwell-P'Cherry
EXTD=ENCONCEPT
EXTT0=
EXTT1=
EXTT2=
EXTT3=
EXTT4=
EXTT5=
EXTT6=
EXTT7=
EXTT8=
EXTT9=
EXTT10=
EXTT11=
EXTT12=
EXTT13=
EXTT14=
EXTT15=
EXTT16=
EXTT17=
EXTT18=
EXTT19=
EXTT20=
EXTT21=
EXTT22=
EXTT23=
EXTT24=
EXTT25=
EXTT26=
EXTT27=
EXTT28=
EXTT29=
PLAYORDER=
